<svg version="1.1" id="Layer_1" xmlns="http://www.w3.org/2000/svg" xmlns:xlink="http://www.w3.org/1999/xlink" x="0px" y="0px"
	 width="100%" viewBox="0 0 200 200" enable-background="new 0 0 200 200" xml:space="preserve">
<path fill="#010101" opacity="1.000000" stroke="none" 
	d="
M100.000000,201.000000 
	C66.687195,201.000000 33.874397,201.000000 1.030797,201.000000 
	C1.030797,134.395569 1.030797,67.791107 1.030797,1.093328 
	C67.562645,1.093328 134.125458,1.093328 200.844147,1.093328 
	C200.844147,67.666382 200.844147,134.333145 200.844147,201.000000 
	C167.458054,201.000000 133.979034,201.000000 100.000000,201.000000 
M102.281143,140.195480 
	C116.641403,148.094009 130.707504,145.914322 143.957291,137.916534 
	C149.806351,134.385941 156.682495,129.896927 159.215973,124.137779 
	C163.330963,114.783516 164.257446,104.026604 166.661743,93.271698 
	C154.210114,93.271698 142.576035,93.234566 130.943375,93.345459 
	C130.057312,93.353905 128.586884,94.260643 128.398590,95.005325 
	C127.310326,99.309502 126.525772,103.690468 125.490524,108.771103 
	C133.483856,108.771103 140.846497,108.771103 149.667999,108.771103 
	C147.532440,113.797798 146.725204,118.650307 143.907501,121.547501 
	C140.725113,124.819664 135.960068,127.030197 131.486755,128.472687 
	C121.265877,131.768524 111.278206,128.492065 105.991982,120.938217 
	C100.215073,112.683220 100.444954,102.332664 106.596962,93.698311 
	C117.210670,78.801956 110.104774,60.450012 92.677086,59.312927 
	C78.592110,58.393944 64.399376,59.126625 49.908123,59.126625 
	C48.861443,64.094223 47.848164,68.903320 46.853500,73.624039 
	C47.533318,73.944275 47.824894,74.200935 48.117657,74.202301 
	C58.782711,74.251945 69.448044,74.252693 80.112930,74.322517 
	C83.267311,74.343163 86.495735,74.159355 89.558823,74.750305 
	C96.302788,76.051414 98.535141,82.012199 94.530617,87.593475 
	C91.452904,91.883018 87.028099,93.325920 81.897011,93.302406 
	C68.933006,93.242989 55.968540,93.282700 42.623749,93.282700 
	C39.107708,109.809479 35.626236,126.173782 32.046692,142.999054 
	C41.842907,142.999054 51.318710,142.907196 60.792004,143.021927 
	C73.109001,143.171066 85.568298,144.127975 95.177307,134.754181 
	C97.727379,136.738876 99.688438,138.265152 102.281143,140.195480 
M147.983704,76.344780 
	C151.311905,78.971527 154.640106,81.598274 158.349747,84.526070 
	C161.125565,82.751938 165.412720,80.011826 169.640152,77.309898 
	C161.291016,57.771679 136.638367,50.940456 118.490799,62.500111 
	C120.293808,66.569283 122.071640,70.581650 123.942894,74.804855 
	C131.623703,72.131851 139.643616,70.924408 147.983704,76.344780 
z"/>
<path fill="#F8F8F8" opacity="1.000000" stroke="none" 
	d="
M101.965317,139.993454 
	C99.688438,138.265152 97.727379,136.738876 95.177307,134.754181 
	C85.568298,144.127975 73.109001,143.171066 60.792004,143.021927 
	C51.318710,142.907196 41.842907,142.999054 32.046692,142.999054 
	C35.626236,126.173782 39.107708,109.809479 42.623749,93.282700 
	C55.968540,93.282700 68.933006,93.242989 81.897011,93.302406 
	C87.028099,93.325920 91.452904,91.883018 94.530617,87.593475 
	C98.535141,82.012199 96.302788,76.051414 89.558823,74.750305 
	C86.495735,74.159355 83.267311,74.343163 80.112930,74.322517 
	C69.448044,74.252693 58.782711,74.251945 48.117657,74.202301 
	C47.824894,74.200935 47.533318,73.944275 46.853500,73.624039 
	C47.848164,68.903320 48.861443,64.094223 49.908123,59.126625 
	C64.399376,59.126625 78.592110,58.393944 92.677086,59.312927 
	C110.104774,60.450012 117.210670,78.801956 106.596962,93.698311 
	C100.444954,102.332664 100.215073,112.683220 105.991982,120.938217 
	C111.278206,128.492065 121.265877,131.768524 131.486755,128.472687 
	C135.960068,127.030197 140.725113,124.819664 143.907501,121.547501 
	C146.725204,118.650307 147.532440,113.797798 149.667999,108.771103 
	C140.846497,108.771103 133.483856,108.771103 125.490524,108.771103 
	C126.525772,103.690468 127.310326,99.309502 128.398590,95.005325 
	C128.586884,94.260643 130.057312,93.353905 130.943375,93.345459 
	C142.576035,93.234566 154.210114,93.271698 166.661743,93.271698 
	C164.257446,104.026604 163.330963,114.783516 159.215973,124.137779 
	C156.682495,129.896927 149.806351,134.385941 143.957291,137.916534 
	C130.707504,145.914322 116.641403,148.094009 101.965317,139.993454 
M51.342693,120.807549 
	C50.950668,123.007973 50.558643,125.208405 50.115601,127.695213 
	C59.603176,127.695213 68.600906,128.090439 77.533295,127.498909 
	C81.061356,127.265282 85.187988,125.593483 87.662621,123.168724 
	C89.727402,121.145561 91.124725,116.653000 90.315651,114.024109 
	C89.608063,111.724983 85.499527,109.210037 82.748238,109.031815 
	C73.327393,108.421539 63.842651,108.797745 53.982235,108.797745 
	C53.167603,112.610245 52.377884,116.306137 51.342693,120.807549 
z"/>
<path fill="#F7F7F7" opacity="1.000000" stroke="none" 
	d="
M147.666046,76.141907 
	C139.643616,70.924408 131.623703,72.131851 123.942894,74.804855 
	C122.071640,70.581650 120.293808,66.569283 118.490799,62.500111 
	C136.638367,50.940456 161.291016,57.771679 169.640152,77.309898 
	C165.412720,80.011826 161.125565,82.751938 158.349747,84.526070 
	C154.640106,81.598274 151.311905,78.971527 147.666046,76.141907 
z"/>
<path fill="#070707" opacity="1.000000" stroke="none" 
	d="
M51.465427,120.404793 
	C52.377884,116.306137 53.167603,112.610245 53.982235,108.797745 
	C63.842651,108.797745 73.327393,108.421539 82.748238,109.031815 
	C85.499527,109.210037 89.608063,111.724983 90.315651,114.024109 
	C91.124725,116.653000 89.727402,121.145561 87.662621,123.168724 
	C85.187988,125.593483 81.061356,127.265282 77.533295,127.498909 
	C68.600906,128.090439 59.603176,127.695213 50.115601,127.695213 
	C50.558643,125.208405 50.950668,123.007973 51.465427,120.404793 
z"/>
</svg>